<?xml version="1.0" encoding="UTF-8"?>
<svg xmlns="http://www.w3.org/2000/svg" xmlns:xlink="http://www.w3.org/1999/xlink" width="627pt" height="511pt" viewBox="0 0 627 511" version="1.1">
<defs>
<clipPath id="clip1">
  <path d="M 92.230469 0 L 534.769531 0 L 534.769531 511 L 92.230469 511 Z M 92.230469 0 "/>
</clipPath>
</defs>
<g id="surface1">
<rect x="0" y="0" width="627" height="511" style="fill:rgb(100%,100%,100%);fill-opacity:1;stroke:none;"/>
<path style=" stroke:none;fill-rule:nonzero;fill:rgb(11.764706%,30.196078%,16.862745%);fill-opacity:1;" d="M 96.570313 130.253906 L 96.570313 380.746094 L 313.5 505.988281 L 530.429688 380.746094 L 530.429688 130.253906 L 313.5 5.011719 Z M 96.570313 130.253906 "/>
<path style="fill:none;stroke-width:2.133957;stroke-linecap:butt;stroke-linejoin:round;stroke:rgb(78.431373%,76.470588%,44.705882%);stroke-opacity:1;stroke-miterlimit:10;" d="M 97.167969 313.644531 L 98.25 313.035156 L 99.332031 314.097656 L 100.414063 312.125 L 101.496094 312.429688 L 102.574219 312.582031 L 103.65625 311.519531 L 104.738281 312.582031 L 105.820313 309.546875 L 106.902344 346.890625 L 107.984375 324.421875 L 109.066406 315.921875 L 110.148438 317.4375 L 111.230469 318.503906 L 112.3125 321.386719 L 113.390625 325.941406 L 114.472656 322.144531 L 115.554688 322.601563 L 116.636719 318.351563 L 117.71875 319.566406 L 118.800781 315.769531 L 119.882813 314.25 L 120.964844 316.984375 L 122.046875 309.242188 L 123.128906 310.757813 L 124.210938 308.632813 L 125.289063 309.847656 L 127.453125 309.847656 L 128.535156 313.035156 L 129.617188 309.546875 L 130.699219 311.0625 L 131.78125 307.417969 L 132.863281 309.394531 L 133.945313 308.332031 L 135.027344 309.546875 L 136.105469 312.277344 L 137.1875 313.949219 L 138.269531 314.25 L 139.351563 309.847656 L 140.433594 311.367188 L 141.515625 308.632813 L 142.597656 297.855469 L 143.679688 302.867188 L 144.761719 310.457031 L 145.84375 316.832031 L 146.925781 320.019531 L 148.003906 326.246094 L 149.085938 371.332031 L 150.167969 340.363281 L 151.25 315.769531 L 152.332031 308.632813 L 153.414063 309.089844 L 154.496094 311.972656 L 155.578125 325.789063 L 156.660156 328.21875 L 157.742188 317.4375 L 158.824219 315.011719 L 159.902344 308.632813 L 160.984375 309.394531 L 162.066406 309.089844 L 163.148438 307.117188 L 164.230469 309.847656 L 165.3125 308.027344 L 166.394531 309.242188 L 167.476563 307.570313 L 168.558594 308.632813 L 169.640625 305.597656 L 170.71875 308.332031 L 171.800781 307.417969 L 172.882813 306.660156 L 173.964844 304.382813 L 175.046875 298.765625 L 176.128906 299.375 L 177.210938 295.273438 L 178.292969 293.605469 L 179.375 300.589844 L 180.457031 312.886719 L 181.539063 314.097656 L 182.617188 318.046875 L 183.699219 325.484375 L 184.78125 318.351563 L 185.863281 316.375 L 186.945313 313.035156 L 188.027344 311.824219 L 189.109375 311.824219 L 190.191406 312.582031 L 191.273438 314.097656 L 192.355469 312.582031 L 193.433594 313.492188 L 194.515625 313.644531 L 195.597656 363.136719 L 196.679688 333.988281 L 197.761719 314.859375 L 198.84375 310.152344 L 199.925781 309.242188 L 201.007813 310.757813 L 202.089844 309.546875 L 203.171875 311.367188 L 204.253906 310.457031 L 205.332031 309.546875 L 206.414063 308.179688 L 207.496094 306.964844 L 208.578125 291.632813 L 209.660156 292.238281 L 210.742188 299.980469 L 211.824219 310.910156 L 212.90625 314.859375 L 213.988281 316.832031 L 215.070313 315.3125 L 216.152344 316.375 L 217.230469 314.402344 L 218.3125 312.582031 L 219.394531 313.949219 L 220.476563 315.011719 L 221.558594 311.824219 L 222.640625 312.277344 L 223.722656 316.226563 L 224.804688 312.125 L 225.886719 312.582031 L 226.96875 314.402344 L 228.046875 314.554688 L 229.128906 313.644531 L 230.210938 349.167969 L 231.292969 364.652344 L 232.375 324.117188 L 233.457031 311.824219 L 234.539063 306.8125 L 235.621094 308.179688 L 236.703125 307.117188 L 237.785156 314.097656 L 238.867188 308.179688 L 239.945313 306.054688 L 241.027344 305.445313 L 242.109375 308.027344 L 243.191406 305.902344 L 244.273438 307.570313 L 245.355469 303.015625 L 246.4375 294.515625 L 247.519531 302.5625 L 248.601563 308.785156 L 249.683594 313.1875 L 250.761719 317.589844 L 251.84375 320.929688 L 252.925781 319.867188 L 254.007813 315.769531 L 255.089844 313.796875 L 256.171875 313.644531 L 257.253906 310 L 258.335938 311.824219 L 259.417969 314.859375 L 260.5 314.859375 L 261.582031 315.464844 L 262.660156 314.097656 L 263.742188 355.847656 L 264.824219 350.382813 L 265.90625 316.527344 L 266.988281 310.757813 L 268.070313 306.660156 L 269.152344 307.570313 L 270.234375 310.457031 L 271.316406 310.609375 L 272.398438 307.570313 L 273.476563 305.902344 L 274.558594 307.570313 L 275.640625 308.9375 L 276.722656 308.9375 L 277.804688 312.277344 L 278.886719 309.695313 L 279.96875 313.035156 L 281.050781 294.363281 L 282.132813 292.085938 L 283.214844 301.195313 L 284.296875 310.152344 L 285.375 313.796875 L 286.457031 318.351563 L 287.539063 322.296875 L 288.621094 316.074219 L 289.703125 311.972656 L 290.785156 315.3125 L 291.867188 310.304688 L 292.949219 313.035156 L 294.03125 322.449219 L 295.113281 355.390625 L 296.195313 356.457031 L 297.273438 314.25 L 298.355469 308.027344 L 299.4375 301.953125 L 300.519531 303.167969 L 301.601563 309.546875 L 302.683594 306.355469 L 303.765625 310 L 304.847656 308.484375 L 305.929688 308.632813 L 307.011719 306.660156 L 308.089844 303.625 L 309.171875 305.597656 L 310.253906 301.804688 L 311.335938 303.320313 L 312.417969 304.839844 L 313.5 303.015625 L 314.582031 301.652344 L 315.664063 294.820313 L 316.746094 288.898438 L 317.828125 297.855469 L 318.910156 309.546875 L 319.988281 314.402344 L 321.070313 316.375 L 322.152344 322.601563 L 323.234375 316.527344 L 324.316406 310.910156 L 325.398438 309.847656 L 326.480469 306.8125 L 327.5625 306.8125 L 328.644531 308.027344 L 329.726563 308.632813 L 330.804688 308.179688 L 331.886719 306.8125 L 332.96875 306.660156 L 334.050781 308.179688 L 335.132813 344.007813 L 336.214844 369.207031 L 337.296875 323.207031 L 338.378906 311.0625 L 339.460938 306.207031 L 340.542969 303.929688 L 341.625 307.570313 L 342.703125 307.722656 L 343.785156 306.8125 L 344.867188 307.117188 L 345.949219 305.597656 L 347.03125 296.640625 L 348.113281 298.3125 L 349.195313 307.875 L 350.277344 311.214844 L 351.359375 312.734375 L 352.441406 317.4375 L 353.523438 315.011719 L 354.601563 309.695313 L 355.683594 309.089844 L 356.765625 306.964844 L 357.847656 306.964844 L 358.929688 308.027344 L 360.011719 306.507813 L 361.09375 308.9375 L 362.175781 310.609375 L 363.257813 308.632813 L 364.339844 309.089844 L 365.417969 309.546875 L 366.5 309.089844 L 367.582031 356.605469 L 368.664063 333.378906 L 369.746094 313.492188 L 370.828125 306.355469 L 371.910156 305.75 L 372.992188 304.078125 L 374.074219 308.027344 L 375.15625 308.332031 L 376.238281 307.570313 L 377.316406 308.027344 L 378.398438 306.660156 L 379.480469 304.839844 L 380.5625 304.382813 L 381.644531 297.097656 L 382.726563 289.203125 L 383.808594 297.097656 L 384.890625 306.507813 L 385.972656 313.1875 L 387.054688 315.769531 L 388.132813 319.867188 L 389.214844 321.082031 L 390.296875 316.832031 L 391.378906 310.304688 L 392.460938 315.164063 L 393.542969 311.214844 L 394.625 310.304688 L 395.707031 313.644531 L 396.789063 307.417969 L 397.871094 310.152344 L 398.953125 309.394531 L 400.03125 333.074219 L 401.113281 360.402344 L 402.195313 319.414063 L 403.277344 305.445313 L 404.359375 299.828125 L 405.441406 304.382813 L 406.523438 305.445313 L 407.605469 306.8125 L 408.6875 305.902344 L 409.769531 307.570313 L 410.847656 309.089844 L 411.929688 307.117188 L 413.011719 305.902344 L 414.09375 306.660156 L 415.175781 305.144531 L 416.257813 301.5 L 417.339844 287.53125 L 418.421875 290.265625 L 419.503906 297.855469 L 420.585938 305.75 L 421.667969 311.824219 L 422.746094 315.3125 L 423.828125 316.074219 L 424.910156 313.339844 L 425.992188 309.546875 L 427.074219 309.394531 L 428.15625 307.570313 L 429.238281 307.875 L 430.320313 308.332031 L 431.402344 308.027344 L 432.484375 349.625 L 433.566406 360.097656 L 434.644531 317.589844 L 435.726563 308.632813 L 436.808594 305.292969 L 437.890625 304.6875 L 438.972656 306.054688 L 440.054688 307.417969 L 441.136719 308.332031 L 442.21875 306.355469 L 443.300781 308.632813 L 444.382813 306.8125 L 445.460938 305.902344 L 446.542969 304.078125 L 447.625 304.078125 L 448.707031 305.292969 L 449.789063 304.078125 L 450.871094 291.023438 L 451.953125 293.453125 L 453.035156 299.527344 L 454.117188 308.484375 L 455.199219 313.035156 L 456.28125 316.074219 L 457.359375 319.566406 L 458.441406 311.519531 L 459.523438 310.609375 L 460.605469 314.859375 L 461.6875 307.117188 L 462.769531 308.179688 L 463.851563 357.214844 L 464.933594 357.519531 L 466.015625 320.476563 L 467.097656 309.847656 L 468.175781 304.839844 L 469.257813 306.355469 L 470.339844 306.8125 L 471.421875 307.722656 L 472.503906 308.179688 L 473.585938 308.179688 L 474.667969 305.292969 L 475.75 305.292969 L 476.832031 304.078125 L 477.914063 303.015625 L 478.996094 302.714844 L 480.074219 301.953125 L 481.15625 300.132813 L 482.238281 300.132813 L 483.320313 287.078125 L 484.402344 284.039063 L 485.484375 293.148438 L 486.566406 304.992188 L 487.648438 306.355469 L 488.730469 310.757813 L 489.8125 316.984375 L 490.894531 309.847656 L 491.972656 306.355469 L 493.054688 305.597656 L 494.136719 302.5625 L 495.21875 309.089844 L 496.300781 302.410156 L 497.382813 306.355469 L 498.464844 306.355469 L 499.546875 301.804688 L 500.628906 306.355469 L 501.710938 304.382813 L 502.789063 305.144531 L 503.871094 345.675781 L 504.953125 352.355469 L 506.035156 317.136719 L 507.117188 305.902344 L 508.199219 301.804688 L 509.28125 301.5 L 510.363281 300.285156 L 511.445313 298.460938 L 512.527344 297.703125 L 513.609375 297.097656 L 514.6875 287.378906 L 515.769531 291.328125 L 516.851563 303.777344 L 517.933594 310.757813 L 519.015625 313.339844 L 520.097656 313.492188 L 521.179688 317.742188 L 522.261719 312.582031 L 523.34375 306.507813 L 524.425781 309.546875 L 525.503906 305.292969 L 527.667969 307.417969 L 528.75 305.902344 L 529.832031 308.484375 "/>
<g clip-path="url(#clip1)" clip-rule="nonzero">
<path style="fill:none;stroke-width:8.535827;stroke-linecap:butt;stroke-linejoin:round;stroke:rgb(34.901961%,34.901961%,35.686275%);stroke-opacity:1;stroke-miterlimit:10;" d="M 96.570313 130.253906 L 96.570313 380.746094 L 313.5 505.988281 L 530.429688 380.746094 L 530.429688 130.253906 L 313.5 5.011719 Z M 96.570313 130.253906 "/>
</g>
<path style=" stroke:none;fill-rule:nonzero;fill:rgb(85.098039%,47.058824%,17.647059%);fill-opacity:1;" d="M 170.277344 167.449219 L 198.371094 167.449219 L 198.414063 167.734375 L 198.449219 168.027344 L 198.480469 168.328125 L 198.507813 168.632813 L 198.53125 168.941406 L 198.550781 169.257813 L 198.566406 169.578125 L 198.578125 169.90625 L 198.585938 170.238281 L 198.585938 170.734375 L 198.574219 171.214844 L 198.570313 171.378906 L 198.5625 171.542969 L 198.550781 171.707031 L 198.527344 172.042969 L 198.515625 172.214844 L 198.515625 172.382813 L 198.507813 172.550781 L 198.503906 172.714844 L 198.492188 172.875 L 198.480469 173.03125 L 198.464844 173.1875 L 198.445313 173.339844 L 198.425781 173.488281 L 198.398438 173.636719 L 198.371094 173.777344 L 177.53125 173.777344 L 177.53125 188.433594 L 194.175781 188.433594 L 194.203125 188.574219 L 194.230469 188.722656 L 194.253906 188.871094 L 194.277344 189.023438 L 194.300781 189.179688 L 194.320313 189.335938 L 194.339844 189.496094 L 194.359375 189.660156 L 194.390625 189.996094 L 194.425781 190.464844 L 194.441406 190.777344 L 194.449219 190.9375 L 194.460938 191.40625 L 194.460938 191.71875 L 194.449219 192.199219 L 194.425781 192.691406 L 194.402344 193.027344 L 194.390625 193.199219 L 194.359375 193.535156 L 194.339844 193.695313 L 194.320313 193.859375 L 194.300781 194.015625 L 194.277344 194.171875 L 194.253906 194.324219 L 194.230469 194.472656 L 194.175781 194.761719 L 177.53125 194.761719 L 177.53125 212.261719 L 198.941406 212.261719 L 198.984375 212.546875 L 199.019531 212.839844 L 199.050781 213.140625 L 199.078125 213.445313 L 199.101563 213.753906 L 199.121094 214.070313 L 199.136719 214.390625 L 199.148438 214.71875 L 199.152344 215.050781 L 199.15625 215.390625 L 199.15625 215.546875 L 199.144531 216.027344 L 199.121094 216.519531 L 199.097656 216.855469 L 199.085938 217.027344 L 199.078125 217.363281 L 199.070313 217.527344 L 199.0625 217.6875 L 199.03125 218 L 199.015625 218.152344 L 198.96875 218.449219 L 198.941406 218.589844 L 170.277344 218.589844 Z M 170.277344 167.449219 "/>
<path style=" stroke:none;fill-rule:nonzero;fill:rgb(85.098039%,47.058824%,17.647059%);fill-opacity:1;" d="M 208.402344 167.375 L 208.621094 167.347656 L 208.84375 167.320313 L 209.074219 167.292969 L 209.3125 167.261719 L 209.558594 167.234375 L 209.8125 167.207031 L 210.070313 167.175781 L 210.335938 167.148438 L 210.609375 167.121094 L 210.890625 167.09375 L 211.191406 167.0625 L 211.492188 167.039063 L 211.792969 167.011719 L 212.097656 166.988281 L 212.402344 166.96875 L 212.710938 166.945313 L 213.019531 166.929688 L 213.328125 166.910156 L 213.636719 166.894531 L 213.949219 166.878906 L 214.277344 166.851563 L 214.601563 166.824219 L 215.25 166.777344 L 215.570313 166.753906 L 215.886719 166.734375 L 216.207031 166.714844 L 216.523438 166.695313 L 216.839844 166.679688 L 217.152344 166.664063 L 217.800781 166.640625 L 218.121094 166.628906 L 218.753906 166.613281 L 219.0625 166.605469 L 219.679688 166.597656 L 219.980469 166.59375 L 220.28125 166.59375 L 221.058594 166.601563 L 221.828125 166.625 L 222.589844 166.664063 L 223.34375 166.71875 L 224.085938 166.789063 L 224.824219 166.875 L 225.550781 166.976563 L 226.269531 167.09375 L 226.976563 167.226563 L 227.679688 167.375 L 228.382813 167.542969 L 229.066406 167.734375 L 229.730469 167.949219 L 230.375 168.183594 L 231.003906 168.445313 L 231.613281 168.726563 L 232.207031 169.03125 L 232.777344 169.355469 L 233.332031 169.707031 L 233.867188 170.078125 L 234.398438 170.476563 L 234.902344 170.898438 L 235.386719 171.347656 L 235.847656 171.820313 L 236.285156 172.320313 L 236.703125 172.84375 L 237.09375 173.394531 L 237.464844 173.972656 L 237.8125 174.574219 L 238.136719 175.203125 L 238.433594 175.84375 L 238.699219 176.519531 L 238.933594 177.226563 L 239.136719 177.964844 L 239.308594 178.738281 L 239.449219 179.546875 L 239.558594 180.382813 L 239.636719 181.257813 L 239.683594 182.160156 L 239.699219 183.097656 L 239.683594 184.078125 L 239.632813 185.023438 L 239.546875 185.9375 L 239.425781 186.820313 L 239.273438 187.667969 L 239.085938 188.484375 L 238.863281 189.265625 L 238.609375 190.015625 L 238.316406 190.734375 L 237.992188 191.417969 L 237.65625 192.0625 L 237.292969 192.675781 L 236.910156 193.265625 L 236.503906 193.832031 L 236.074219 194.371094 L 235.621094 194.886719 L 235.144531 195.371094 L 234.648438 195.835938 L 234.125 196.273438 L 233.582031 196.683594 L 233.035156 197.070313 L 232.472656 197.433594 L 231.890625 197.777344 L 231.296875 198.09375 L 230.683594 198.390625 L 230.058594 198.664063 L 229.414063 198.914063 L 228.757813 199.140625 L 228.085938 199.347656 L 227.394531 199.527344 L 226.695313 199.675781 L 225.996094 199.808594 L 225.289063 199.925781 L 224.582031 200.027344 L 223.875 200.113281 L 223.160156 200.183594 L 222.445313 200.242188 L 221.726563 200.28125 L 221.003906 200.304688 L 220.28125 200.3125 L 217.863281 200.3125 L 217.457031 200.28125 L 217.246094 200.261719 L 217.03125 200.242188 L 216.8125 200.222656 L 216.589844 200.199219 L 216.363281 200.175781 L 216.132813 200.152344 L 215.898438 200.125 L 215.65625 200.097656 L 215.65625 218.589844 L 215.316406 218.632813 L 214.964844 218.667969 L 214.613281 218.699219 L 214.257813 218.726563 L 213.898438 218.75 L 213.53125 218.769531 L 213.164063 218.785156 L 212.789063 218.796875 L 212.414063 218.804688 L 211.859375 218.804688 L 211.683594 218.800781 L 211.324219 218.792969 L 211.140625 218.789063 L 210.953125 218.78125 L 210.765625 218.769531 L 210.574219 218.757813 L 210.378906 218.746094 L 210.179688 218.734375 L 209.996094 218.734375 L 209.8125 218.726563 L 209.632813 218.722656 L 209.273438 218.699219 L 209.097656 218.683594 L 208.746094 218.644531 L 208.402344 218.589844 Z M 215.65625 193.765625 L 215.882813 193.792969 L 216.101563 193.820313 L 216.316406 193.84375 L 216.523438 193.867188 L 216.726563 193.890625 L 216.921875 193.910156 L 217.113281 193.929688 L 217.296875 193.949219 L 217.476563 193.964844 L 217.648438 193.980469 L 217.828125 193.992188 L 218.023438 194.003906 L 218.230469 194.015625 L 218.457031 194.027344 L 218.699219 194.035156 L 218.957031 194.039063 L 219.226563 194.042969 L 219.515625 194.046875 L 219.820313 194.050781 L 220.140625 194.050781 L 220.578125 194.046875 L 221.019531 194.035156 L 221.457031 194.011719 L 221.890625 193.984375 L 222.328125 193.945313 L 222.761719 193.898438 L 223.191406 193.84375 L 223.621094 193.777344 L 224.050781 193.707031 L 224.476563 193.625 L 224.914063 193.519531 L 225.339844 193.398438 L 225.757813 193.261719 L 226.164063 193.113281 L 226.558594 192.949219 L 226.945313 192.769531 L 227.320313 192.578125 L 227.6875 192.371094 L 228.042969 192.152344 L 228.390625 191.917969 L 228.726563 191.667969 L 229.046875 191.398438 L 229.351563 191.113281 L 229.644531 190.8125 L 229.921875 190.496094 L 230.183594 190.160156 L 230.433594 189.804688 L 230.667969 189.4375 L 230.886719 189.050781 L 231.09375 188.644531 L 231.296875 188.207031 L 231.476563 187.742188 L 231.636719 187.257813 L 231.777344 186.746094 L 231.894531 186.207031 L 231.988281 185.648438 L 232.066406 185.066406 L 232.117188 184.457031 L 232.148438 183.824219 L 232.160156 183.167969 L 232.152344 182.59375 L 232.125 182.039063 L 232.078125 181.5 L 232.011719 180.984375 L 231.929688 180.484375 L 231.828125 180 L 231.707031 179.539063 L 231.570313 179.09375 L 231.410156 178.667969 L 231.234375 178.261719 L 231.058594 177.871094 L 230.867188 177.496094 L 230.660156 177.136719 L 230.4375 176.792969 L 230.203125 176.464844 L 229.957031 176.152344 L 229.691406 175.855469 L 229.414063 175.574219 L 229.125 175.308594 L 228.816406 175.058594 L 228.5 174.824219 L 228.164063 174.605469 L 227.820313 174.398438 L 227.464844 174.207031 L 227.09375 174.027344 L 226.710938 173.863281 L 226.3125 173.714844 L 225.902344 173.578125 L 225.480469 173.457031 L 225.046875 173.351563 L 224.601563 173.257813 L 224.152344 173.171875 L 223.691406 173.097656 L 223.226563 173.03125 L 222.753906 172.976563 L 222.273438 172.933594 L 221.785156 172.898438 L 221.292969 172.875 L 220.789063 172.859375 L 220.28125 172.855469 L 219.761719 172.855469 L 219.253906 172.863281 L 218.761719 172.871094 L 218.277344 172.886719 L 217.808594 172.90625 L 217.355469 172.929688 L 216.910156 172.957031 L 216.480469 172.992188 L 216.0625 173.027344 L 215.65625 173.066406 Z M 215.65625 193.765625 "/>
<path style=" stroke:none;fill-rule:nonzero;fill:rgb(85.098039%,47.058824%,17.647059%);fill-opacity:1;" d="M 278.253906 192.128906 L 278.425781 192.101563 L 278.597656 192.078125 L 278.773438 192.050781 L 278.949219 192.027344 L 279.125 192.007813 L 279.304688 191.984375 L 279.484375 191.964844 L 279.664063 191.949219 L 280.03125 191.917969 L 280.21875 191.902344 L 280.402344 191.890625 L 280.585938 191.882813 L 280.773438 191.871094 L 281.140625 191.855469 L 281.328125 191.851563 L 281.511719 191.847656 L 282.25 191.847656 L 282.4375 191.851563 L 282.621094 191.855469 L 282.804688 191.863281 L 282.992188 191.871094 L 283.175781 191.882813 L 283.363281 191.890625 L 283.546875 191.902344 L 283.914063 191.933594 L 284.273438 191.964844 L 284.449219 191.984375 L 284.621094 192.007813 L 284.789063 192.027344 L 284.957031 192.050781 L 285.121094 192.078125 L 285.28125 192.101563 L 285.4375 192.128906 L 285.4375 217.097656 L 285.136719 217.222656 L 284.828125 217.347656 L 284.515625 217.46875 L 284.199219 217.585938 L 283.875 217.703125 L 283.542969 217.816406 L 283.207031 217.925781 L 282.867188 218.03125 L 282.519531 218.136719 L 282.167969 218.234375 L 281.808594 218.320313 L 281.449219 218.398438 L 281.085938 218.472656 L 280.722656 218.542969 L 280.351563 218.609375 L 279.980469 218.671875 L 279.605469 218.730469 L 279.230469 218.78125 L 278.851563 218.832031 L 278.46875 218.875 L 278.082031 218.929688 L 277.699219 218.984375 L 277.316406 219.035156 L 276.929688 219.082031 L 276.164063 219.167969 L 275.777344 219.203125 L 275.394531 219.242188 L 275.011719 219.273438 L 274.625 219.304688 L 274.246094 219.328125 L 273.867188 219.355469 L 273.492188 219.375 L 273.125 219.394531 L 272.757813 219.410156 L 272.398438 219.421875 L 272.042969 219.433594 L 271.691406 219.441406 L 271.34375 219.445313 L 271 219.445313 L 269.871094 219.425781 L 268.769531 219.375 L 267.6875 219.285156 L 266.628906 219.160156 L 265.59375 219 L 264.578125 218.804688 L 263.589844 218.574219 L 262.621094 218.308594 L 261.675781 218.003906 L 260.753906 217.667969 L 259.859375 217.296875 L 258.992188 216.894531 L 258.152344 216.460938 L 257.339844 215.992188 L 256.558594 215.496094 L 255.804688 214.96875 L 255.078125 214.410156 L 254.382813 213.820313 L 253.714844 213.199219 L 253.074219 212.546875 L 252.460938 211.847656 L 251.878906 211.121094 L 251.324219 210.367188 L 250.796875 209.585938 L 250.300781 208.777344 L 249.828125 207.9375 L 249.390625 207.066406 L 248.976563 206.171875 L 248.59375 205.246094 L 248.238281 204.292969 L 247.925781 203.3125 L 247.648438 202.308594 L 247.402344 201.277344 L 247.1875 200.21875 L 247.007813 199.136719 L 246.863281 198.027344 L 246.746094 196.894531 L 246.664063 195.734375 L 246.617188 194.550781 L 246.601563 193.339844 L 246.617188 192.128906 L 246.667969 190.941406 L 246.753906 189.777344 L 246.875 188.640625 L 247.027344 187.523438 L 247.214844 186.433594 L 247.4375 185.367188 L 247.691406 184.324219 L 247.984375 183.308594 L 248.308594 182.3125 L 248.664063 181.332031 L 249.046875 180.382813 L 249.460938 179.460938 L 249.902344 178.570313 L 250.371094 177.707031 L 250.867188 176.878906 L 251.394531 176.074219 L 251.949219 175.304688 L 252.53125 174.5625 L 253.144531 173.851563 L 253.796875 173.167969 L 254.46875 172.519531 L 255.167969 171.90625 L 255.886719 171.324219 L 256.628906 170.773438 L 257.394531 170.257813 L 258.183594 169.773438 L 258.996094 169.320313 L 259.828125 168.902344 L 260.683594 168.515625 L 261.574219 168.148438 L 262.484375 167.824219 L 263.414063 167.535156 L 264.359375 167.285156 L 265.324219 167.074219 L 266.308594 166.902344 L 267.3125 166.765625 L 268.332031 166.671875 L 269.371094 166.613281 L 270.429688 166.59375 L 271.230469 166.601563 L 272.007813 166.617188 L 272.765625 166.644531 L 273.503906 166.683594 L 274.21875 166.738281 L 274.910156 166.800781 L 275.582031 166.875 L 276.234375 166.957031 L 276.863281 167.054688 L 277.472656 167.164063 L 278.0625 167.265625 L 278.644531 167.378906 L 279.214844 167.5 L 279.769531 167.628906 L 280.316406 167.769531 L 280.851563 167.914063 L 281.375 168.070313 L 281.886719 168.234375 L 282.386719 168.40625 L 282.878906 168.585938 L 282.847656 168.910156 L 282.804688 169.230469 L 282.761719 169.546875 L 282.707031 169.859375 L 282.648438 170.167969 L 282.578125 170.472656 L 282.503906 170.773438 L 282.421875 171.066406 L 282.332031 171.359375 L 282.238281 171.644531 L 282.148438 171.917969 L 282.058594 172.195313 L 281.960938 172.476563 L 281.863281 172.761719 L 281.757813 173.050781 L 281.648438 173.34375 L 281.535156 173.640625 L 281.417969 173.945313 L 281.296875 174.25 L 281.171875 174.5625 L 280.769531 174.433594 L 280.359375 174.3125 L 279.945313 174.191406 L 279.519531 174.070313 L 279.089844 173.957031 L 278.652344 173.84375 L 278.207031 173.734375 L 277.757813 173.628906 L 277.296875 173.523438 L 276.832031 173.421875 L 276.363281 173.328125 L 275.871094 173.242188 L 275.355469 173.167969 L 274.816406 173.105469 L 274.253906 173.050781 L 273.664063 173.003906 L 273.050781 172.96875 L 272.414063 172.945313 L 271.753906 172.929688 L 271.070313 172.925781 L 270.320313 172.9375 L 269.585938 172.980469 L 268.867188 173.046875 L 268.15625 173.140625 L 267.460938 173.261719 L 266.777344 173.410156 L 266.105469 173.585938 L 265.449219 173.789063 L 264.800781 174.019531 L 264.171875 174.277344 L 263.566406 174.558594 L 262.980469 174.867188 L 262.410156 175.203125 L 261.859375 175.5625 L 261.324219 175.949219 L 260.808594 176.359375 L 260.304688 176.796875 L 259.824219 177.257813 L 259.355469 177.746094 L 258.90625 178.261719 L 258.488281 178.785156 L 258.089844 179.335938 L 257.710938 179.910156 L 257.347656 180.511719 L 257.003906 181.140625 L 256.679688 181.792969 L 256.371094 182.472656 L 256.082031 183.175781 L 255.8125 183.90625 L 255.5625 184.660156 L 255.332031 185.425781 L 255.128906 186.214844 L 254.945313 187.027344 L 254.789063 187.859375 L 254.65625 188.714844 L 254.546875 189.59375 L 254.460938 190.496094 L 254.402344 191.421875 L 254.367188 192.371094 L 254.355469 193.339844 L 254.367188 194.335938 L 254.402344 195.304688 L 254.460938 196.25 L 254.546875 197.164063 L 254.65625 198.050781 L 254.789063 198.914063 L 254.945313 199.75 L 255.128906 200.554688 L 255.332031 201.335938 L 255.5625 202.089844 L 255.828125 202.804688 L 256.113281 203.496094 L 256.421875 204.164063 L 256.746094 204.808594 L 257.09375 205.433594 L 257.457031 206.03125 L 257.84375 206.609375 L 258.25 207.164063 L 258.675781 207.695313 L 259.121094 208.207031 L 259.582031 208.679688 L 260.0625 209.125 L 260.554688 209.546875 L 261.066406 209.949219 L 261.589844 210.324219 L 262.132813 210.671875 L 262.691406 211 L 263.261719 211.300781 L 263.851563 211.582031 L 264.453125 211.835938 L 265.085938 212.050781 L 265.730469 212.242188 L 266.390625 212.414063 L 267.0625 212.5625 L 267.746094 212.6875 L 268.441406 212.789063 L 269.148438 212.871094 L 269.871094 212.925781 L 270.605469 212.960938 L 271.355469 212.972656 L 271.804688 212.96875 L 272.242188 212.964844 L 272.667969 212.953125 L 273.085938 212.9375 L 273.488281 212.917969 L 273.882813 212.894531 L 274.261719 212.867188 L 274.632813 212.835938 L 274.992188 212.800781 L 275.335938 212.757813 L 275.675781 212.703125 L 276 212.640625 L 276.316406 212.582031 L 276.625 212.519531 L 276.921875 212.457031 L 277.207031 212.390625 L 277.484375 212.324219 L 277.75 212.257813 L 278.007813 212.1875 L 278.253906 212.117188 Z M 278.253906 192.128906 "/>
<path style=" stroke:none;fill-rule:nonzero;fill:rgb(85.098039%,47.058824%,17.647059%);fill-opacity:1;" d="M 296.464844 182.101563 L 296.605469 182.074219 L 296.75 182.046875 L 297.03125 182 L 297.175781 181.976563 L 297.316406 181.957031 L 297.460938 181.9375 L 297.601563 181.917969 L 297.746094 181.902344 L 297.886719 181.886719 L 298.355469 181.851563 L 298.824219 181.828125 L 299.136719 181.820313 L 299.296875 181.816406 L 299.59375 181.816406 L 299.882813 181.824219 L 300.03125 181.828125 L 300.179688 181.835938 L 300.332031 181.84375 L 300.480469 181.851563 L 300.636719 181.863281 L 300.789063 181.875 L 300.945313 181.886719 L 301.101563 181.902344 L 301.253906 181.917969 L 301.410156 181.9375 L 301.558594 181.957031 L 301.710938 181.976563 L 301.859375 182 L 302.003906 182.023438 L 302.152344 182.046875 L 302.296875 182.074219 L 302.4375 182.101563 L 302.453125 182.136719 L 302.46875 182.183594 L 302.480469 182.242188 L 302.496094 182.316406 L 302.511719 182.402344 L 302.523438 182.503906 L 302.539063 182.613281 L 302.554688 182.738281 L 302.566406 182.875 L 302.582031 183.027344 L 302.609375 183.167969 L 302.636719 183.316406 L 302.660156 183.464844 L 302.683594 183.617188 L 302.707031 183.773438 L 302.726563 183.929688 L 302.746094 184.089844 L 302.761719 184.253906 L 302.78125 184.421875 L 302.792969 184.589844 L 302.824219 184.761719 L 302.847656 184.929688 L 302.875 185.097656 L 302.898438 185.261719 L 302.917969 185.425781 L 302.941406 185.589844 L 302.957031 185.75 L 302.976563 185.910156 L 302.992188 186.070313 L 303.007813 186.226563 L 303.035156 186.378906 L 303.058594 186.515625 L 303.082031 186.644531 L 303.097656 186.761719 L 303.113281 186.867188 L 303.128906 186.960938 L 303.136719 187.042969 L 303.144531 187.113281 L 303.148438 187.175781 L 303.148438 187.222656 L 303.445313 186.769531 L 303.601563 186.546875 L 303.765625 186.324219 L 303.933594 186.101563 L 304.105469 185.882813 L 304.285156 185.664063 L 304.46875 185.445313 L 304.660156 185.230469 L 304.859375 185.015625 L 305.058594 184.804688 L 305.269531 184.597656 L 305.488281 184.394531 L 305.710938 184.199219 L 305.941406 184.003906 L 306.179688 183.8125 L 306.425781 183.628906 L 306.679688 183.445313 L 306.9375 183.269531 L 307.203125 183.097656 L 307.492188 182.929688 L 307.785156 182.769531 L 308.085938 182.617188 L 308.386719 182.472656 L 308.699219 182.332031 L 309.015625 182.199219 L 309.335938 182.074219 L 309.664063 181.957031 L 309.996094 181.847656 L 310.335938 181.746094 L 310.695313 181.652344 L 311.058594 181.566406 L 311.433594 181.492188 L 311.8125 181.425781 L 312.203125 181.371094 L 312.597656 181.328125 L 313 181.292969 L 313.40625 181.265625 L 313.824219 181.253906 L 314.246094 181.246094 L 314.882813 181.257813 L 315.507813 181.289063 L 316.121094 181.34375 L 316.726563 181.417969 L 317.324219 181.515625 L 317.910156 181.632813 L 318.484375 181.769531 L 319.050781 181.929688 L 319.605469 182.113281 L 320.152344 182.3125 L 320.695313 182.539063 L 321.226563 182.789063 L 321.738281 183.0625 L 322.234375 183.363281 L 322.710938 183.683594 L 323.171875 184.03125 L 323.617188 184.402344 L 324.042969 184.796875 L 324.453125 185.214844 L 324.84375 185.65625 L 325.234375 186.113281 L 325.605469 186.589844 L 325.957031 187.097656 L 326.289063 187.625 L 326.605469 188.183594 L 326.902344 188.765625 L 327.179688 189.371094 L 327.441406 190.003906 L 327.679688 190.664063 L 327.902344 191.347656 L 328.121094 192.042969 L 328.3125 192.765625 L 328.484375 193.511719 L 328.632813 194.285156 L 328.757813 195.082031 L 328.859375 195.90625 L 328.941406 196.753906 L 328.996094 197.628906 L 329.03125 198.53125 L 329.042969 199.457031 L 328.992188 201.292969 L 328.835938 203.050781 L 328.582031 204.726563 L 328.222656 206.320313 L 327.761719 207.832031 L 327.199219 209.265625 L 326.53125 210.617188 L 325.765625 211.886719 L 324.894531 213.074219 L 323.921875 214.179688 L 322.867188 215.179688 L 321.730469 216.078125 L 320.507813 216.867188 L 319.199219 217.550781 L 317.804688 218.128906 L 316.324219 218.601563 L 314.757813 218.972656 L 313.109375 219.234375 L 311.375 219.390625 L 309.550781 219.445313 L 309.238281 219.441406 L 308.921875 219.4375 L 308.605469 219.425781 L 308.289063 219.410156 L 307.96875 219.390625 L 307.648438 219.367188 L 307.328125 219.339844 L 307.003906 219.308594 L 306.679688 219.273438 L 306.351563 219.230469 L 306.027344 219.1875 L 305.714844 219.140625 L 305.40625 219.089844 L 305.109375 219.039063 L 304.820313 218.984375 L 304.542969 218.925781 L 304.269531 218.863281 L 304.007813 218.800781 L 303.753906 218.734375 L 303.507813 218.664063 L 303.507813 235.378906 L 303.332031 235.40625 L 303.160156 235.433594 L 302.800781 235.480469 L 302.617188 235.503906 L 302.242188 235.542969 L 302.050781 235.5625 L 301.855469 235.578125 L 301.65625 235.59375 L 301.472656 235.605469 L 301.113281 235.628906 L 300.941406 235.636719 L 300.765625 235.644531 L 300.597656 235.652344 L 300.105469 235.664063 L 299.789063 235.664063 L 299.628906 235.660156 L 299.460938 235.65625 L 299.289063 235.652344 L 299.113281 235.644531 L 298.933594 235.636719 L 298.75 235.628906 L 298.5625 235.617188 L 298.171875 235.59375 L 297.988281 235.578125 L 297.808594 235.5625 L 297.628906 235.542969 L 297.453125 235.523438 L 297.28125 235.503906 L 296.945313 235.457031 L 296.78125 235.433594 L 296.621094 235.40625 L 296.464844 235.378906 Z M 303.507813 212.617188 L 303.777344 212.714844 L 304.050781 212.804688 L 304.324219 212.890625 L 304.597656 212.96875 L 304.875 213.042969 L 305.152344 213.113281 L 305.433594 213.175781 L 305.714844 213.230469 L 305.996094 213.28125 L 306.28125 213.328125 L 306.574219 213.367188 L 306.882813 213.40625 L 307.210938 213.4375 L 307.554688 213.464844 L 307.917969 213.488281 L 308.292969 213.507813 L 308.691406 213.523438 L 309.101563 213.53125 L 309.53125 213.539063 L 309.980469 213.542969 L 310.488281 213.535156 L 310.984375 213.511719 L 311.476563 213.472656 L 311.960938 213.417969 L 312.433594 213.34375 L 312.898438 213.257813 L 313.355469 213.15625 L 313.804688 213.039063 L 314.242188 212.90625 L 314.671875 212.757813 L 315.09375 212.578125 L 315.5 212.382813 L 315.894531 212.167969 L 316.277344 211.9375 L 316.648438 211.691406 L 317.003906 211.425781 L 317.347656 211.144531 L 317.679688 210.847656 L 317.996094 210.53125 L 318.300781 210.199219 L 318.605469 209.847656 L 318.898438 209.480469 L 319.175781 209.097656 L 319.441406 208.695313 L 319.6875 208.277344 L 319.921875 207.84375 L 320.144531 207.390625 L 320.351563 206.921875 L 320.542969 206.433594 L 320.71875 205.929688 L 320.894531 205.394531 L 321.054688 204.839844 L 321.191406 204.269531 L 321.3125 203.675781 L 321.414063 203.066406 L 321.496094 202.4375 L 321.5625 201.792969 L 321.609375 201.128906 L 321.636719 200.445313 L 321.644531 199.742188 L 321.625 198.628906 L 321.558594 197.558594 L 321.453125 196.539063 L 321.304688 195.566406 L 321.109375 194.636719 L 320.875 193.757813 L 320.597656 192.925781 L 320.277344 192.140625 L 319.917969 191.398438 L 319.511719 190.707031 L 319.070313 190.074219 L 318.578125 189.503906 L 318.03125 189.003906 L 317.429688 188.566406 L 316.773438 188.199219 L 316.0625 187.898438 L 315.296875 187.664063 L 314.480469 187.5 L 313.609375 187.398438 L 312.683594 187.363281 L 312.328125 187.371094 L 311.976563 187.390625 L 311.628906 187.421875 L 311.28125 187.46875 L 310.9375 187.523438 L 310.597656 187.59375 L 310.261719 187.679688 L 309.929688 187.773438 L 309.597656 187.882813 L 309.269531 188.003906 L 308.945313 188.140625 L 308.628906 188.285156 L 308.316406 188.445313 L 308.015625 188.621094 L 307.71875 188.804688 L 307.433594 189.003906 L 307.152344 189.214844 L 306.878906 189.4375 L 306.609375 189.675781 L 306.351563 189.925781 L 306.101563 190.1875 L 305.859375 190.464844 L 305.628906 190.757813 L 305.40625 191.0625 L 305.195313 191.382813 L 304.992188 191.71875 L 304.800781 192.066406 L 304.621094 192.429688 L 304.449219 192.804688 L 304.289063 193.199219 L 304.140625 193.589844 L 304.007813 193.996094 L 303.890625 194.421875 L 303.789063 194.859375 L 303.703125 195.3125 L 303.632813 195.785156 L 303.578125 196.269531 L 303.539063 196.769531 L 303.515625 197.289063 L 303.507813 197.820313 Z M 303.507813 212.617188 "/>
<path style=" stroke:none;fill-rule:nonzero;fill:rgb(85.098039%,47.058824%,17.647059%);fill-opacity:1;" d="M 338.359375 166.453125 L 338.679688 166.398438 L 338.84375 166.371094 L 339.007813 166.347656 L 339.351563 166.308594 L 339.703125 166.269531 L 339.882813 166.253906 L 340.066406 166.238281 L 340.265625 166.226563 L 340.457031 166.214844 L 340.832031 166.191406 L 341.011719 166.183594 L 341.1875 166.179688 L 341.523438 166.171875 L 341.6875 166.167969 L 342.003906 166.167969 L 342.164063 166.171875 L 342.328125 166.175781 L 342.664063 166.183594 L 342.835938 166.191406 L 343.1875 166.214844 L 343.554688 166.238281 L 343.75 166.253906 L 343.941406 166.269531 L 344.132813 166.289063 L 344.316406 166.308594 L 344.496094 166.328125 L 344.671875 166.347656 L 344.84375 166.371094 L 345.011719 166.398438 L 345.332031 166.453125 L 345.332031 207.566406 L 345.335938 207.957031 L 345.347656 208.328125 L 345.363281 208.683594 L 345.386719 209.023438 L 345.421875 209.34375 L 345.460938 209.648438 L 345.503906 209.9375 L 345.558594 210.207031 L 345.621094 210.460938 L 345.6875 210.695313 L 345.761719 210.917969 L 345.839844 211.132813 L 345.917969 211.335938 L 346.003906 211.527344 L 346.097656 211.710938 L 346.191406 211.882813 L 346.289063 212.046875 L 346.394531 212.199219 L 346.5 212.339844 L 346.613281 212.472656 L 346.742188 212.585938 L 346.875 212.6875 L 347.007813 212.785156 L 347.148438 212.871094 L 347.289063 212.953125 L 347.429688 213.027344 L 347.578125 213.097656 L 347.726563 213.15625 L 347.878906 213.210938 L 348.035156 213.257813 L 348.207031 213.285156 L 348.378906 213.308594 L 348.730469 213.347656 L 348.90625 213.363281 L 349.265625 213.386719 L 349.445313 213.394531 L 349.628906 213.398438 L 349.941406 213.398438 L 350.074219 213.394531 L 350.210938 213.394531 L 350.347656 213.386719 L 350.488281 213.382813 L 350.632813 213.375 L 350.777344 213.363281 L 351.234375 213.328125 L 351.402344 213.3125 L 351.566406 213.296875 L 351.722656 213.277344 L 352.019531 213.238281 L 352.15625 213.21875 L 352.292969 213.195313 L 352.542969 213.140625 L 352.65625 213.113281 L 352.78125 213.617188 L 352.886719 214.128906 L 352.984375 214.648438 L 353.066406 215.175781 L 353.136719 215.710938 L 353.195313 216.253906 L 353.242188 216.808594 L 353.273438 217.371094 L 353.292969 217.941406 L 353.296875 218.519531 L 353.09375 218.589844 L 352.882813 218.652344 L 352.664063 218.707031 L 352.433594 218.757813 L 352.195313 218.804688 L 351.949219 218.84375 L 351.695313 218.878906 L 351.433594 218.90625 L 351.160156 218.929688 L 350.878906 218.949219 L 350.597656 218.972656 L 350.320313 219 L 350.046875 219.019531 L 349.777344 219.039063 L 349.511719 219.054688 L 349.25 219.066406 L 348.992188 219.078125 L 348.738281 219.082031 L 348.492188 219.089844 L 348.246094 219.089844 L 347.839844 219.085938 L 347.433594 219.070313 L 347.035156 219.042969 L 346.644531 219.011719 L 346.257813 218.964844 L 345.875 218.910156 L 345.5 218.84375 L 345.128906 218.769531 L 344.765625 218.6875 L 344.40625 218.589844 L 344.054688 218.484375 L 343.710938 218.367188 L 343.378906 218.234375 L 343.050781 218.089844 L 342.734375 217.933594 L 342.425781 217.761719 L 342.125 217.582031 L 341.835938 217.386719 L 341.550781 217.175781 L 341.277344 216.957031 L 341.011719 216.71875 L 340.757813 216.46875 L 340.515625 216.203125 L 340.285156 215.917969 L 340.066406 215.621094 L 339.859375 215.308594 L 339.664063 214.980469 L 339.480469 214.632813 L 339.304688 214.273438 L 339.144531 213.898438 L 338.996094 213.503906 L 338.863281 213.089844 L 338.742188 212.660156 L 338.640625 212.210938 L 338.554688 211.746094 L 338.484375 211.257813 L 338.429688 210.753906 L 338.390625 210.230469 L 338.367188 209.691406 L 338.359375 209.132813 Z M 338.359375 166.453125 "/>
<path style=" stroke:none;fill-rule:nonzero;fill:rgb(85.098039%,47.058824%,17.647059%);fill-opacity:1;" d="M 374.496094 219.445313 L 373.652344 219.429688 L 372.832031 219.386719 L 372.03125 219.316406 L 371.253906 219.21875 L 370.496094 219.089844 L 369.757813 218.933594 L 369.042969 218.75 L 368.351563 218.535156 L 367.675781 218.292969 L 367.027344 218.023438 L 366.398438 217.714844 L 365.789063 217.382813 L 365.203125 217.03125 L 364.636719 216.65625 L 364.09375 216.261719 L 363.570313 215.847656 L 363.066406 215.410156 L 362.589844 214.949219 L 362.128906 214.46875 L 361.691406 213.96875 L 361.277344 213.445313 L 360.882813 212.90625 L 360.507813 212.347656 L 360.15625 211.773438 L 359.824219 211.175781 L 359.515625 210.5625 L 359.226563 209.929688 L 358.960938 209.277344 L 358.714844 208.609375 L 358.492188 207.921875 L 358.300781 207.21875 L 358.132813 206.503906 L 357.984375 205.78125 L 357.855469 205.042969 L 357.742188 204.292969 L 357.65625 203.535156 L 357.585938 202.761719 L 357.535156 201.980469 L 357.503906 201.1875 L 357.496094 200.382813 L 357.503906 199.578125 L 357.535156 198.78125 L 357.585938 198 L 357.65625 197.230469 L 357.742188 196.46875 L 357.855469 195.722656 L 357.984375 194.984375 L 358.132813 194.257813 L 358.300781 193.542969 L 358.492188 192.84375 L 358.714844 192.152344 L 358.960938 191.484375 L 359.226563 190.832031 L 359.515625 190.203125 L 359.824219 189.585938 L 360.15625 188.992188 L 360.507813 188.414063 L 360.882813 187.855469 L 361.277344 187.316406 L 361.691406 186.796875 L 362.128906 186.292969 L 362.589844 185.8125 L 363.066406 185.355469 L 363.570313 184.917969 L 364.09375 184.5 L 364.636719 184.105469 L 365.203125 183.734375 L 365.789063 183.382813 L 366.398438 183.050781 L 367.027344 182.742188 L 367.675781 182.457031 L 368.351563 182.203125 L 369.042969 181.980469 L 369.757813 181.785156 L 370.496094 181.621094 L 371.253906 181.488281 L 372.03125 181.382813 L 372.832031 181.308594 L 373.652344 181.261719 L 374.496094 181.246094 L 375.339844 181.261719 L 376.160156 181.308594 L 376.960938 181.382813 L 377.738281 181.488281 L 378.496094 181.621094 L 379.234375 181.785156 L 379.949219 181.980469 L 380.640625 182.203125 L 381.3125 182.457031 L 381.964844 182.742188 L 382.59375 183.050781 L 383.203125 183.382813 L 383.789063 183.734375 L 384.355469 184.105469 L 384.898438 184.5 L 385.421875 184.917969 L 385.921875 185.355469 L 386.402344 185.8125 L 386.863281 186.292969 L 387.300781 186.796875 L 387.714844 187.316406 L 388.105469 187.855469 L 388.476563 188.414063 L 388.824219 188.992188 L 389.148438 189.585938 L 389.449219 190.203125 L 389.730469 190.832031 L 389.984375 191.484375 L 390.21875 192.152344 L 390.429688 192.84375 L 390.632813 193.542969 L 390.8125 194.257813 L 390.972656 194.984375 L 391.113281 195.722656 L 391.230469 196.46875 L 391.324219 197.230469 L 391.398438 198 L 391.453125 198.78125 L 391.484375 199.578125 L 391.496094 200.382813 L 391.484375 201.1875 L 391.453125 201.980469 L 391.398438 202.761719 L 391.324219 203.535156 L 391.230469 204.292969 L 391.113281 205.042969 L 390.972656 205.78125 L 390.8125 206.503906 L 390.632813 207.21875 L 390.429688 207.921875 L 390.21875 208.609375 L 389.984375 209.277344 L 389.730469 209.929688 L 389.449219 210.5625 L 389.148438 211.175781 L 388.824219 211.773438 L 388.476563 212.347656 L 388.105469 212.90625 L 387.714844 213.445313 L 387.300781 213.96875 L 386.863281 214.46875 L 386.402344 214.949219 L 385.921875 215.410156 L 385.421875 215.847656 L 384.898438 216.261719 L 384.355469 216.65625 L 383.789063 217.03125 L 383.203125 217.382813 L 382.59375 217.714844 L 381.964844 218.023438 L 381.3125 218.292969 L 380.640625 218.535156 L 379.949219 218.75 L 379.234375 218.933594 L 378.496094 219.089844 L 377.738281 219.21875 L 376.960938 219.316406 L 376.160156 219.386719 L 375.339844 219.429688 Z M 374.496094 213.824219 L 375.453125 213.789063 L 376.355469 213.683594 L 377.210938 213.503906 L 378.011719 213.257813 L 378.761719 212.9375 L 379.464844 212.546875 L 380.113281 212.082031 L 380.710938 211.550781 L 381.257813 210.945313 L 381.75 210.269531 L 382.195313 209.53125 L 382.597656 208.734375 L 382.949219 207.886719 L 383.253906 206.980469 L 383.511719 206.019531 L 383.722656 205.003906 L 383.886719 203.929688 L 384.003906 202.804688 L 384.074219 201.621094 L 384.097656 200.382813 L 384.074219 199.144531 L 384.003906 197.964844 L 383.886719 196.839844 L 383.722656 195.773438 L 383.511719 194.761719 L 383.253906 193.808594 L 382.949219 192.914063 L 382.597656 192.074219 L 382.195313 191.292969 L 381.75 190.566406 L 381.257813 189.890625 L 380.710938 189.285156 L 380.113281 188.75 L 379.464844 188.289063 L 378.761719 187.898438 L 378.011719 187.578125 L 377.210938 187.328125 L 376.355469 187.152344 L 375.453125 187.042969 L 374.496094 187.007813 L 373.539063 187.042969 L 372.636719 187.152344 L 371.78125 187.328125 L 370.980469 187.578125 L 370.226563 187.898438 L 369.527344 188.289063 L 368.878906 188.75 L 368.28125 189.285156 L 367.734375 189.890625 L 367.238281 190.566406 L 366.808594 191.292969 L 366.421875 192.074219 L 366.078125 192.914063 L 365.785156 193.808594 L 365.53125 194.761719 L 365.328125 195.773438 L 365.167969 196.839844 L 365.054688 197.964844 L 364.988281 199.144531 L 364.964844 200.382813 L 364.988281 201.621094 L 365.054688 202.804688 L 365.167969 203.929688 L 365.328125 205.003906 L 365.53125 206.019531 L 365.785156 206.980469 L 366.078125 207.886719 L 366.421875 208.734375 L 366.808594 209.53125 L 367.238281 210.269531 L 367.734375 210.945313 L 368.28125 211.550781 L 368.878906 212.082031 L 369.527344 212.546875 L 370.226563 212.9375 L 370.980469 213.257813 L 371.78125 213.503906 L 372.636719 213.683594 L 373.539063 213.789063 Z M 374.496094 213.824219 "/>
<path style=" stroke:none;fill-rule:nonzero;fill:rgb(85.098039%,47.058824%,17.647059%);fill-opacity:1;" d="M 402.09375 187.71875 L 396.546875 187.71875 L 396.261719 186.722656 L 408.496094 173.066406 L 409.066406 173.066406 L 409.066406 182.101563 L 418.3125 182.101563 L 418.367188 182.34375 L 418.414063 182.597656 L 418.457031 182.851563 L 418.496094 183.113281 L 418.527344 183.382813 L 418.550781 183.65625 L 418.570313 183.933594 L 418.585938 184.21875 L 418.59375 184.507813 L 418.597656 184.804688 L 418.597656 184.960938 L 418.585938 185.417969 L 418.578125 185.570313 L 418.570313 185.71875 L 418.5625 185.863281 L 418.550781 186.011719 L 418.539063 186.15625 L 418.527344 186.296875 L 418.511719 186.441406 L 418.496094 186.582031 L 418.476563 186.722656 L 418.457031 186.867188 L 418.4375 187.007813 L 418.414063 187.152344 L 418.390625 187.292969 L 418.367188 187.4375 L 418.3125 187.71875 L 409.066406 187.71875 L 409.066406 204.949219 L 409.074219 205.511719 L 409.085938 206.050781 L 409.101563 206.5625 L 409.117188 207.050781 L 409.140625 207.515625 L 409.171875 207.957031 L 409.203125 208.371094 L 409.238281 208.761719 L 409.277344 209.132813 L 409.339844 209.480469 L 409.402344 209.8125 L 409.476563 210.128906 L 409.550781 210.429688 L 409.632813 210.714844 L 409.722656 210.984375 L 409.816406 211.238281 L 409.917969 211.476563 L 410.023438 211.699219 L 410.132813 211.90625 L 410.265625 212.085938 L 410.402344 212.253906 L 410.546875 212.410156 L 410.703125 212.554688 L 410.863281 212.6875 L 411.027344 212.808594 L 411.203125 212.921875 L 411.382813 213.019531 L 411.574219 213.109375 L 411.769531 213.1875 L 411.988281 213.238281 L 412.214844 213.289063 L 412.453125 213.332031 L 412.703125 213.367188 L 412.960938 213.398438 L 413.226563 213.425781 L 413.507813 213.445313 L 413.792969 213.457031 L 414.09375 213.46875 L 414.640625 213.46875 L 414.878906 213.464844 L 415.113281 213.457031 L 415.34375 213.449219 L 415.574219 213.433594 L 415.800781 213.417969 L 416.023438 213.402344 L 416.246094 213.378906 L 416.460938 213.355469 L 416.675781 213.328125 L 416.886719 213.285156 L 417.09375 213.242188 L 417.296875 213.199219 L 417.496094 213.15625 L 417.691406 213.113281 L 418.066406 213.027344 L 418.246094 212.988281 L 418.425781 212.945313 L 418.597656 212.902344 L 418.691406 213.1875 L 418.78125 213.472656 L 418.859375 213.761719 L 418.925781 214.050781 L 418.988281 214.339844 L 419.042969 214.632813 L 419.085938 214.925781 L 419.121094 215.222656 L 419.148438 215.519531 L 419.167969 215.816406 L 419.195313 216.113281 L 419.21875 216.402344 L 419.238281 216.683594 L 419.257813 216.957031 L 419.273438 217.222656 L 419.285156 217.480469 L 419.296875 217.734375 L 419.304688 217.980469 L 419.308594 218.21875 L 419.308594 218.449219 L 419.023438 218.519531 L 418.734375 218.582031 L 418.441406 218.644531 L 418.148438 218.699219 L 417.851563 218.75 L 417.550781 218.800781 L 417.246094 218.84375 L 416.941406 218.882813 L 416.632813 218.917969 L 416.320313 218.949219 L 416.007813 218.988281 L 415.6875 219.023438 L 415.363281 219.054688 L 415.035156 219.082031 L 414.703125 219.105469 L 414.367188 219.125 L 414.027344 219.140625 L 413.679688 219.152344 L 413.332031 219.160156 L 412.976563 219.160156 L 411.976563 219.136719 L 411.015625 219.0625 L 410.101563 218.9375 L 409.234375 218.761719 L 408.40625 218.539063 L 407.625 218.265625 L 406.886719 217.941406 L 406.195313 217.566406 L 405.546875 217.144531 L 404.941406 216.671875 L 404.398438 216.140625 L 403.914063 215.542969 L 403.488281 214.882813 L 403.117188 214.15625 L 402.804688 213.363281 L 402.550781 212.503906 L 402.351563 211.582031 L 402.207031 210.59375 L 402.125 209.539063 L 402.09375 208.417969 Z M 402.09375 187.71875 "/>
<path style=" stroke:none;fill-rule:nonzero;fill:rgb(85.098039%,47.058824%,17.647059%);fill-opacity:1;" d="M 426.917969 167.375 L 427.230469 167.347656 L 427.535156 167.320313 L 427.832031 167.292969 L 428.125 167.261719 L 428.414063 167.234375 L 428.695313 167.207031 L 428.972656 167.175781 L 429.242188 167.148438 L 429.507813 167.121094 L 429.765625 167.09375 L 430.019531 167.0625 L 430.273438 167.039063 L 430.527344 167.011719 L 430.777344 166.988281 L 431.027344 166.96875 L 431.277344 166.945313 L 431.523438 166.929688 L 431.769531 166.910156 L 432.253906 166.878906 L 432.769531 166.824219 L 433.03125 166.800781 L 433.289063 166.777344 L 433.554688 166.753906 L 433.816406 166.734375 L 434.347656 166.695313 L 434.886719 166.664063 L 435.160156 166.652344 L 435.4375 166.640625 L 435.722656 166.628906 L 436.011719 166.621094 L 436.308594 166.613281 L 436.609375 166.605469 L 436.917969 166.601563 L 437.230469 166.597656 L 437.550781 166.59375 L 437.875 166.59375 L 438.597656 166.601563 L 439.324219 166.621094 L 440.042969 166.660156 L 440.765625 166.707031 L 441.484375 166.773438 L 442.203125 166.851563 L 442.917969 166.941406 L 443.632813 167.050781 L 444.347656 167.171875 L 445.058594 167.304688 L 445.761719 167.457031 L 446.449219 167.632813 L 447.121094 167.828125 L 447.777344 168.046875 L 448.417969 168.285156 L 449.042969 168.542969 L 449.652344 168.824219 L 450.25 169.125 L 450.828125 169.449219 L 451.390625 169.796875 L 451.933594 170.164063 L 452.457031 170.558594 L 452.957031 170.976563 L 453.4375 171.421875 L 453.898438 171.894531 L 454.335938 172.390625 L 454.75 172.914063 L 455.144531 173.460938 L 455.519531 174.03125 L 455.871094 174.632813 L 456.207031 175.246094 L 456.511719 175.894531 L 456.777344 176.570313 L 457.007813 177.285156 L 457.203125 178.027344 L 457.363281 178.804688 L 457.488281 179.617188 L 457.578125 180.460938 L 457.632813 181.335938 L 457.648438 182.242188 L 457.640625 182.792969 L 457.613281 183.332031 L 457.566406 183.863281 L 457.5 184.382813 L 457.417969 184.894531 L 457.316406 185.394531 L 457.195313 185.882813 L 457.058594 186.363281 L 456.898438 186.832031 L 456.722656 187.292969 L 456.535156 187.742188 L 456.335938 188.183594 L 456.125 188.613281 L 455.90625 189.035156 L 455.675781 189.445313 L 455.433594 189.847656 L 455.183594 190.234375 L 454.925781 190.617188 L 454.65625 190.988281 L 454.375 191.347656 L 454.089844 191.699219 L 453.789063 192.042969 L 453.484375 192.375 L 453.171875 192.703125 L 452.847656 193.019531 L 452.515625 193.328125 L 452.175781 193.628906 L 451.828125 193.921875 L 451.46875 194.203125 L 451.105469 194.476563 L 450.75 194.730469 L 450.394531 194.972656 L 450.042969 195.207031 L 449.695313 195.433594 L 449.34375 195.652344 L 448.996094 195.859375 L 448.648438 196.0625 L 448.304688 196.253906 L 447.960938 196.4375 L 447.621094 196.613281 L 446.765625 197.039063 L 461.632813 218.589844 L 461.242188 218.632813 L 460.84375 218.667969 L 460.433594 218.699219 L 460.015625 218.726563 L 459.585938 218.75 L 459.148438 218.769531 L 458.699219 218.785156 L 458.242188 218.796875 L 457.773438 218.804688 L 456.910156 218.804688 L 456.523438 218.796875 L 456.140625 218.785156 L 455.757813 218.769531 L 455.371094 218.75 L 454.988281 218.726563 L 454.605469 218.699219 L 454.21875 218.667969 L 453.835938 218.632813 L 453.453125 218.589844 L 437.089844 194.90625 L 437.089844 194.621094 L 437.660156 194.476563 L 438.046875 194.375 L 438.4375 194.265625 L 438.832031 194.148438 L 439.230469 194.023438 L 439.632813 193.890625 L 440.042969 193.753906 L 440.453125 193.605469 L 440.871094 193.453125 L 441.289063 193.292969 L 441.714844 193.125 L 442.136719 192.949219 L 442.554688 192.765625 L 442.964844 192.570313 L 443.367188 192.363281 L 443.761719 192.148438 L 444.148438 191.921875 L 444.527344 191.6875 L 444.902344 191.441406 L 445.269531 191.1875 L 445.628906 190.921875 L 445.992188 190.632813 L 446.339844 190.332031 L 446.679688 190.023438 L 447.003906 189.703125 L 447.316406 189.375 L 447.617188 189.035156 L 447.902344 188.6875 L 448.175781 188.328125 L 448.4375 187.957031 L 448.6875 187.578125 L 448.914063 187.171875 L 449.121094 186.75 L 449.304688 186.3125 L 449.460938 185.859375 L 449.59375 185.390625 L 449.703125 184.90625 L 449.785156 184.40625 L 449.847656 183.890625 L 449.882813 183.359375 L 449.894531 182.8125 L 449.863281 181.8125 L 449.773438 180.867188 L 449.621094 179.976563 L 449.40625 179.136719 L 449.128906 178.347656 L 448.792969 177.613281 L 448.398438 176.933594 L 447.9375 176.300781 L 447.417969 175.726563 L 446.835938 175.203125 L 446.21875 174.726563 L 445.554688 174.304688 L 444.851563 173.929688 L 444.105469 173.609375 L 443.316406 173.332031 L 442.484375 173.109375 L 441.609375 172.9375 L 440.691406 172.8125 L 439.730469 172.738281 L 438.726563 172.710938 L 438.488281 172.710938 L 438.25 172.714844 L 437.78125 172.722656 L 437.328125 172.738281 L 437.105469 172.746094 L 436.882813 172.757813 L 436.453125 172.78125 L 436.25 172.796875 L 436.042969 172.8125 L 435.828125 172.832031 L 435.609375 172.851563 L 435.382813 172.871094 L 435.152344 172.894531 L 434.917969 172.917969 L 434.675781 172.941406 L 434.429688 172.96875 L 434.175781 172.996094 L 434.175781 218.589844 L 433.855469 218.621094 L 433.6875 218.632813 L 433.515625 218.648438 L 433.339844 218.664063 L 433.160156 218.675781 L 432.976563 218.691406 L 432.785156 218.707031 L 432.59375 218.71875 L 432.398438 218.734375 L 432.210938 218.746094 L 432.03125 218.757813 L 431.847656 218.769531 L 431.667969 218.78125 L 431.488281 218.789063 L 431.136719 218.796875 L 430.964844 218.800781 L 430.789063 218.804688 L 430.445313 218.804688 L 430.273438 218.800781 L 429.914063 218.792969 L 429.730469 218.789063 L 429.542969 218.78125 L 429.355469 218.769531 L 429.160156 218.757813 L 428.96875 218.746094 L 428.769531 218.734375 L 428.570313 218.734375 L 428.375 218.726563 L 428.183594 218.722656 L 427.808594 218.699219 L 427.625 218.683594 L 427.265625 218.644531 L 427.09375 218.617188 L 426.917969 218.589844 Z M 426.917969 167.375 "/>
</g>
</svg>
